HIERARCHY
ROOT Hips
{
	OFFSET	0.00	0.00	0.00
	CHANNELS 6 Xposition Yposition Zposition Zrotation Xrotation Yrotation
	JOINT LeftUpLeg
	{
		OFFSET	 0.126116	-0.065224	 0.014019
		CHANNELS 3 Zrotation Xrotation Yrotation
		JOINT LeftLeg
		{
			OFFSET	 0.000000	 0.569914	 0.000000
			CHANNELS 3 Zrotation Xrotation Yrotation
			JOINT LeftFoot
			{
				OFFSET	 0.000000	 0.544423	 0.000000
				CHANNELS 3 Zrotation Xrotation Yrotation
				JOINT LeftToeBase
				{
					OFFSET	 0.000000	 0.207117	 0.000000
					CHANNELS 3 Zrotation Xrotation Yrotation
					End Site
					{
						OFFSET	 0.000000	 0.207117	 0.000000
					}
				}
			}
		}
	}
	JOINT RightUpLeg
	{
		OFFSET	-0.124023	-0.065224	 0.008373
		CHANNELS 3 Zrotation Xrotation Yrotation
		JOINT RightLeg
		{
			OFFSET	 0.000000	 0.570047	 0.000000
			CHANNELS 3 Zrotation Xrotation Yrotation
			JOINT RightFoot
			{
				OFFSET	 0.000000	 0.544354	 0.000000
				CHANNELS 3 Zrotation Xrotation Yrotation
				JOINT RightToeBase
				{
					OFFSET	 0.000000	 0.207540	 0.000000
					CHANNELS 3 Zrotation Xrotation Yrotation
					End Site
					{
						OFFSET	 0.000000	 0.207540	 0.000000
					}
				}
			}
		}
	}
	JOINT Spine
	{
		OFFSET	 0.000184	 0.117403	 0.007763
		CHANNELS 3 Zrotation Xrotation Yrotation
		JOINT Spine1
		{
			OFFSET	 0.000000	 0.137269	 0.000000
			CHANNELS 3 Zrotation Xrotation Yrotation
			JOINT Spine2
			{
				OFFSET	 0.000000	 0.156879	 0.000000
				CHANNELS 3 Zrotation Xrotation Yrotation
				JOINT LeftShoulder
				{
					OFFSET	 0.080501	 0.160143	 0.002496
					CHANNELS 3 Zrotation Xrotation Yrotation
					JOINT LeftArm
					{
						OFFSET	 0.000000	 0.164363	 0.000000
						CHANNELS 3 Zrotation Xrotation Yrotation
						JOINT LeftForeArm
						{
							OFFSET	 0.000000	 0.364576	 0.000000
							CHANNELS 3 Zrotation Xrotation Yrotation
							JOINT LeftHand
							{
								OFFSET	 0.000000	 0.360812	 0.000000
								CHANNELS 3 Zrotation Xrotation Yrotation
								JOINT LeftHandIndex1
								{
									OFFSET	 0.000000	 0.086006	 0.000000
									CHANNELS 3 Zrotation Xrotation Yrotation
									JOINT LeftHandIndex2
									{
										OFFSET	 0.000000	 0.047237	 0.000000
										CHANNELS 3 Zrotation Xrotation Yrotation
										JOINT LeftHandIndex3
										{
											OFFSET	-0.004284	 0.038165	 0.000551
											CHANNELS 3 Zrotation Xrotation Yrotation
											End Site
											{
												OFFSET	-0.004284	 0.038165	 0.000551
											}
										}
									}
								}
							}
						}
					}
				}
				JOINT Neck
				{
					OFFSET	 0.000000	 0.176489	 0.000000
					CHANNELS 3 Zrotation Xrotation Yrotation
					JOINT Head
					{
						OFFSET	 0.000000	 0.077941	 0.001747
						CHANNELS 3 Zrotation Xrotation Yrotation
						End Site
						{
							OFFSET	 0.000000	 0.077941	 0.001747
						}
					}
				}
				JOINT RightShoulder
				{
					OFFSET	-0.080363	 0.159706	-0.000306
					CHANNELS 3 Zrotation Xrotation Yrotation
					JOINT RightArm
					{
						OFFSET	 0.000000	 0.164196	 0.000000
						CHANNELS 3 Zrotation Xrotation Yrotation
						JOINT RightForeArm
						{
							OFFSET	 0.000000	 0.365611	 0.000000
							CHANNELS 3 Zrotation Xrotation Yrotation
							JOINT RightHand
							{
								OFFSET	 0.000000	 0.360648	 0.000000
								CHANNELS 3 Zrotation Xrotation Yrotation
								JOINT RightHandIndex1
								{
									OFFSET	 0.000000	 0.069977	 0.000000
									CHANNELS 3 Zrotation Xrotation Yrotation
									JOINT RightHandIndex2
									{
										OFFSET	 0.000000	 0.052305	 0.000000
										CHANNELS 3 Zrotation Xrotation Yrotation
										JOINT RightHandIndex3
										{
											OFFSET	 0.009002	 0.042196	 0.000782
											CHANNELS 3 Zrotation Xrotation Yrotation
											End Site
											{
												OFFSET	 0.009002	 0.042196	 0.000782
											}
										}
									}
								}
							}
						}
					}
				}
			}
		}
	}
}
MOTION
Frames:    12
Frame Time: 0.03333334
-0.045401	 1.234375	-1.246582	-3.472344	 1.462741	-174.115900	 174.750800	 7.965568	-15.834720	 4.340796	-29.727910	 6.085918	 7.657278	 80.636760	-0.216046	 1.512287	 31.240310	-2.811662	 167.572100	 27.242410	 20.068800	-5.813878	-53.413360	 6.294659	 4.226013	 70.079490	-3.436861	-1.668530	 33.137300	 2.886185	-1.475285	 8.625930	-0.325523	-0.771850	 3.823808	 0.504218	 0.962472	-4.246240	-4.515163	-121.358900	 7.423539	 94.035500	 10.634860	 41.769850	 2.018989	 24.715920	-1.239503	 0.187739	 9.993270	-0.390663	 10.363440	 4.624177	 18.856530	-1.654968	-5.863953	 21.470840	 2.373669	 5.331528	 4.340008	-0.169039	-0.168371	-5.009586	-0.144698	-2.099792	-2.069643	-4.074409	 118.423900	-0.013299	-90.826340	-0.880848	 48.962140	-4.682126	-5.014250	-0.197043	 0.049915	-5.537920	 7.618865	-3.273559	-2.438165	 25.992480	 1.336381	 15.855080	 44.981340	-11.843920	-8.529009	 23.990480	-1.227679
-0.045342	 1.234183	-1.247149	-3.469069	 1.388208	-174.093700	 174.756000	 8.043934	-15.834280	 4.357959	-29.790930	 6.117348	 7.682315	 80.683780	-0.242926	 1.513271	 31.252570	-2.812125	 167.553700	 27.201930	 20.120160	-5.836113	-53.497590	 6.287601	 4.498743	 70.506200	-3.592118	-1.668960	 33.142430	 2.886400	-1.464842	 8.600718	-0.342462	-0.856342	 3.248253	 0.499465	 1.013335	-3.844263	-4.510849	-121.358500	 7.435802	 94.041590	 11.324390	 41.867680	 1.592087	 23.261940	-1.170809	 0.157138	 10.730210	-0.487409	 10.459280	 4.625761	 18.861730	-1.655812	-5.863939	 21.475400	 2.374173	 5.331724	 4.344600	-0.168955	-0.168596	-5.010629	-0.143667	-2.094374	-2.049542	-4.072258	 118.422200	-0.020506	-90.822960	-0.733620	 49.028090	-4.767138	-4.998729	-0.196421	 0.050022	-5.213462	 7.674421	-3.393876	-2.432398	 25.949760	 1.333279	 15.844180	 44.939660	-11.827200	-8.529180	 23.947600	-1.224816
-0.045318	 1.233883	-1.248612	-3.462312	 1.308706	-174.066200	 174.763300	 8.085800	-15.828080	 4.384726	-29.866080	 6.181518	 7.919274	 80.768620	-0.494156	 1.515458	 31.279780	-2.813154	 167.535700	 26.980840	 20.215540	-5.877261	-53.643480	 6.278542	 5.227183	 71.458750	-4.069242	-1.669914	 33.153850	 2.886877	-1.448150	 8.565579	-0.367670	-0.999843	 2.156744	 0.502064	 1.086723	-3.232750	-4.494785	-121.357800	 7.463038	 94.055110	 11.458350	 42.098220	 1.581932	 21.989770	-1.110036	 0.131843	 11.614820	-0.694354	 10.602720	 4.629278	 18.873270	-1.657687	-5.863907	 21.485540	 2.375292	 5.332159	 4.354798	-0.168770	-0.169094	-5.012945	-0.141376	-2.084648	-2.040899	-4.066370	 118.418400	-0.036586	-90.815420	-0.185354	 49.115770	-5.131772	-4.985836	-0.195897	 0.050066	-4.780861	 7.764703	-3.627312	-2.419608	 25.854890	 1.326414	 15.820070	 44.847110	-11.790150	-8.529549	 23.852360	-1.218464
-0.045295	 1.233492	-1.250723	-3.460452	 1.234289	-174.028500	 174.767800	 8.091483	-15.818460	 4.417455	-29.949910	 6.264938	 8.249418	 80.882930	-0.846113	 1.518348	 31.315700	-2.814515	 167.519200	 26.612340	 20.330090	-5.930519	-53.826060	 6.267471	 6.336242	 72.745610	-4.832458	-1.671175	 33.168910	 2.887508	-1.433170	 8.537875	-0.400684	-1.191713	 0.691061	 0.501612	 1.180390	-2.463360	-4.473145	-121.356900	 7.498976	 94.072950	 11.194590	 42.418660	 1.866671	 20.846890	-1.055026	 0.110206	 12.581230	-0.964130	 10.784470	 4.633922	 18.888500	-1.660164	-5.863866	 21.498920	 2.376769	 5.332734	 4.368258	-0.168525	-0.169752	-5.016002	-0.138351	-2.072398	-2.038722	-4.058328	 118.413400	-0.057789	-90.805470	 0.639271	 49.218980	-5.692652	-4.972995	-0.195433	 0.050082	-4.276334	 7.872664	-3.933641	-2.402758	 25.729640	 1.317394	 15.788420	 44.724900	-11.741420	-8.530020	 23.726630	-1.210086
-0.045258	 1.232925	-1.254209	-3.461568	 1.146009	-173.970600	 174.772700	 8.047134	-15.692920	 4.399710	-30.061000	 6.262547	 8.764791	 81.058980	-1.399489	 1.522690	 31.369630	-2.816563	 167.515300	 25.940770	 20.482990	-6.005328	-54.066140	 6.255131	 8.386523	 74.722530	-6.335726	-1.673068	 33.191540	 2.888456	-1.416791	 8.508184	-0.449430	-1.491210	-1.626973	 0.491554	 1.323566	-1.289937	-4.442516	-121.355500	 7.552977	 94.099790	 10.364260	 42.930580	 2.595954	 19.542260	-0.991659	 0.086948	 13.889380	-1.367216	 11.067670	 4.640897	 18.911380	-1.663886	-5.863805	 21.519020	 2.378987	 5.333598	 4.388471	-0.168158	-0.170740	-5.020593	-0.133810	-2.054439	-2.042156	-4.046110	 118.405900	-0.089628	-90.790520	 2.026222	 49.358790	-6.652064	-4.958686	-0.194853	 0.050138	-3.553268	 8.022992	-4.401520	-2.377530	 25.541560	 1.303944	 15.741310	 44.541370	-11.668600	-8.530686	 23.537830	-1.197523
-0.045201	 1.232299	-1.258921	-3.463996	 1.057297	-173.897700	 174.779600	 7.927890	-15.614870	 4.415013	-30.147160	 6.345118	 9.404414	 81.274350	-2.092570	 1.527986	 31.435340	-2.819067	 167.549900	 24.946840	 20.639400	-6.081769	-54.276780	 6.252267	 11.764350	 77.170810	-9.005151	-1.675376	 33.219090	 2.889612	-1.405785	 8.458082	-0.506690	-1.871445	-4.618619	 0.462596	 1.502852	 0.188690	-4.409690	-121.353800	 7.618738	 94.132430	 8.857092	 43.587250	 3.840349	 18.319150	-0.931819	 0.066336	 15.364130	-1.854080	 11.439850	 4.649398	 18.939240	-1.668426	-5.863733	 21.543500	 2.381690	 5.334649	 4.413095	-0.167712	-0.171942	-5.026185	-0.128278	-2.032902	-2.051556	-4.031082	 118.396800	-0.128420	-90.772320	 3.919856	 49.503230	-7.981837	-4.944403	-0.194281	 0.050182	-2.684632	 8.191778	-4.986653	-2.346911	 25.312400	 1.287709	 15.684540	 44.317690	-11.580480	-8.531438	 23.307800	-1.182244
-0.045131	 1.231826	-1.263617	-3.464671	 0.988694	-173.831100	 174.788400	 7.759911	-15.541360	 4.419502	-30.172450	 6.415528	 9.996661	 81.462620	-2.740331	 1.532809	 31.495110	-2.821351	 167.623900	 23.876170	 20.752690	-6.129858	-54.360020	 6.267447	 16.175020	 79.391680	-12.736540	-1.677476	 33.244150	 2.890666	-1.408192	 8.358456	-0.555065	-2.222378	-7.419829	 0.421016	 1.666030	 1.551552	-4.384445	-121.352300	 7.678564	 94.162160	 7.070895	 44.193340	 5.279681	 17.471620	-0.890087	 0.052932	 16.620280	-2.291181	 11.804080	 4.657134	 18.964590	-1.672559	-5.863667	 21.565770	 2.384148	 5.335604	 4.435492	-0.167306	-0.173035	-5.031271	-0.123247	-2.013498	-2.062876	-4.017388	 118.388500	-0.163714	-90.755780	 5.814566	 49.603380	-9.327951	-4.931813	-0.193817	 0.050200	-1.891996	 8.333138	-5.532805	-2.319173	 25.103940	 1.273085	 15.633510	 44.114170	-11.500880	-8.532063	 23.098560	-1.168371
-0.045011	 1.231413	-1.270020	-3.461003	 0.919533	-173.745400	 174.797300	 7.462581	-15.416230	 4.408957	-30.113150	 6.495921	 10.910080	 81.670620	-3.741482	 1.538876	 31.570180	-2.824232	 167.773400	 22.295090	 20.767290	-6.002986	-54.283790	 6.501010	 25.130770	 82.069890	-20.806380	-1.680115	 33.275650	 2.891991	-1.434976	 8.096437	-0.610272	-2.652809	-10.893870	 0.351171	 1.862176	 3.220211	-4.357999	-121.350500	 7.753703	 94.199460	 4.279990	 44.925700	 7.503755	 16.749490	-0.854363	 0.041842	 18.081640	-2.829447	 12.291760	 4.666854	 18.996420	-1.677756	-5.863585	 21.593730	 2.387237	 5.336805	 4.463625	-0.166796	-0.174408	-5.037662	-0.116927	-1.989285	-2.079466	-4.000253	 118.378100	-0.208036	-90.735000	 8.400800	 49.675280	-11.182490	-4.918105	-0.193270	 0.050274	-0.885050	 8.494563	-6.234785	-2.284474	 24.842050	 1.254907	 15.570200	 43.858410	-11.401630	-8.532766	 22.835700	-1.150977
-0.044681	 1.231369	-1.283090	-3.436104	 0.865462	-173.588000	 174.852900	 6.607076	-15.251640	 4.328715	-29.659320	 6.613883	 12.046270	 81.950290	-5.037398	 1.550070	 31.708390	-2.829565	 168.280800	 18.659400	 20.766000	-5.808372	-53.387410	 6.821612	 66.759820	 85.667130	-60.691350	-1.684980	 33.333610	 2.894436	-1.578047	 7.013843	-0.689866	-3.352425	-16.607650	 0.204506	 2.168106	 5.917506	-4.316520	-121.347300	 7.892048	 94.268200	-2.460855	 45.991390	 12.845590	 16.499770	-0.841999	 0.038233	 20.374850	-3.779530	 13.254070	 4.684762	 19.055020	-1.687342	-5.863441	 21.645230	 2.392925	 5.339015	 4.515416	-0.165860	-0.176933	-5.049425	-0.105292	-1.945036	-2.114768	-3.968800	 118.359000	-0.289640	-90.696790	 13.647290	 49.607140	-14.980190	-4.897936	-0.192486	 0.050339	 1.001193	 8.744161	-7.559032	-2.221016	 24.359830	 1.221991	 15.455940	 43.387330	-11.220990	-8.533834	 22.351720	-1.119047
-0.044345	 1.232052	-1.293423	-3.401270	 0.924369	-173.480900	 174.907200	 5.676251	-15.107490	 4.209899	-28.979730	 6.670465	 12.873440	 82.008830	-6.005887	 1.558212	 31.808680	-2.833460	 168.831500	 15.370220	 20.682090	-5.516284	-51.966890	 7.178333	 115.466900	 85.204740	-108.097900	-1.688514	 33.375670	 2.896214	-1.763521	 5.673812	-0.729284	-3.748767	-19.887490	 0.117901	 2.332703	 7.439307	-4.283913	-121.345100	 7.992451	 94.318080	-8.561312	 46.326330	 17.677550	 17.230730	-0.878172	 0.049191	 21.692140	-4.434150	 13.981180	 4.697768	 19.097550	-1.694313	-5.863341	 21.682590	 2.397053	 5.340618	 4.552999	-0.165182	-0.178764	-5.057961	-0.096849	-1.913111	-2.142937	-3.946112	 118.345200	-0.348876	-90.669060	 17.725140	 49.363570	-17.945410	-4.887365	-0.192078	 0.050354	 2.386353	 8.886323	-8.532116	-2.175301	 24.009840	 1.198546	 15.374840	 43.045280	-11.091580	-8.534427	 22.000470	-1.095948
-0.043975	 1.233233	-1.303134	-3.356385	 1.085011	-173.394100	 174.969800	 4.568410	-14.964190	 4.054125	-28.074940	 6.699301	 13.570470	 81.927560	-6.846283	 1.565544	 31.898800	-2.836978	 169.466000	 11.900260	 20.560390	-5.142954	-50.009090	 7.584895	 138.666800	 83.082610	-130.132100	-1.691692	 33.413470	 2.897817	-1.975108	 4.139177	-0.770100	-4.009862	-22.171220	 0.068798	 2.433404	 8.501886	-4.227217	-121.343200	 8.082654	 94.362920	-14.538200	 46.200730	 22.421000	 18.267630	-0.929258	 0.065597	 22.735840	-5.039593	 14.601910	 4.709462	 19.135760	-1.700586	-5.863252	 21.716170	 2.400764	 5.342058	 4.586768	-0.164573	-0.180408	-5.065632	-0.089263	-1.884441	-2.167025	-3.920334	 118.332800	-0.402104	-90.644150	 21.462480	 49.003880	-20.661460	-4.877574	-0.191689	 0.050413	 3.643613	 8.982256	-9.455405	-2.134459	 23.695310	 1.177792	 15.303240	 42.737790	-10.976450	-8.534826	 21.684820	-1.075243
-0.043586	 1.234784	-1.312283	-3.302084	 1.356384	-173.325400	 175.042600	 3.285054	-14.823400	 3.868396	-26.975710	 6.708873	 14.157150	 81.723860	-7.577309	 1.572325	 31.982020	-2.840242	 170.175100	 8.224497	 20.423040	-4.712404	-47.533050	 8.020608	 148.711400	 80.890360	-139.125900	-1.694629	 33.448360	 2.899299	-2.187926	 2.564707	-0.848843	-4.155179	-23.786240	 0.045893	 2.472861	 9.287513	-4.101894	-121.341500	 8.165960	 94.404320	-19.983800	 45.754350	 26.764910	 19.088530	-0.969513	 0.079146	 23.757830	-5.709655	 15.051740	 4.720266	 19.171040	-1.706388	-5.863171	 21.747170	 2.404191	 5.343388	 4.617951	-0.164012	-0.181926	-5.072716	-0.082258	-1.857879	-2.183452	-3.879642	 118.321400	-0.451272	-90.621150	 24.871230	 48.578480	-23.133510	-4.868226	-0.191319	 0.050421	 4.826213	 9.032084	-10.454380	-2.096939	 23.404850	 1.158887	 15.238170	 42.453730	-10.871100	-8.535087	 21.393330	-1.056164
